<svg xmlns="http://www.w3.org/2000/svg" xmlns:xlink="http://www.w3.org/1999/xlink" width="1330" height="673.01"><rect width="1330" height="673.01" rx="0" ry="0" class="a"/><svg height="673.01" viewBox="0 0 133 67.301" width="1330" xmlns="http://www.w3.org/2000/svg" xmlns:xlink="http://www.w3.org/1999/xlink"><style>@keyframes h{0%{transform:translateX(0)}1.9%{transform:translateX(-133px)}6%{transform:translateX(-266px)}6.7%{transform:translateX(-399px)}8.8%{transform:translateX(-532px)}12.3%{transform:translateX(-665px)}17.9%{transform:translateX(-798px)}21.9%{transform:translateX(-931px)}23.2%{transform:translateX(-1064px)}23.8%{transform:translateX(-1197px)}24.9%{transform:translateX(-1330px)}25.9%{transform:translateX(-1463px)}26.8%{transform:translateX(-1596px)}28.7%{transform:translateX(-1729px)}31%{transform:translateX(-1862px)}32.4%{transform:translateX(-1995px)}33.7%{transform:translateX(-2128px)}35.1%{transform:translateX(-2261px)}37.6%{transform:translateX(-2394px)}41.8%{transform:translateX(-2660px)}52.3%{transform:translateX(-2793px)}54.2%{transform:translateX(-2926px)}55.6%{transform:translateX(-3059px)}57.4%{transform:translateX(-3192px)}62.1%{transform:translateX(-3325px)}67.5%{transform:translateX(-3458px)}68.1%{transform:translateX(-3591px)}68.8%{transform:translateX(-3724px)}69.8%{transform:translateX(-3857px)}71.3%{transform:translateX(-3990px)}73.2%{transform:translateX(-4123px)}74.4%{transform:translateX(-4256px)}78.6%{transform:translateX(-4389px)}78.9%{transform:translateX(-4655px)}86.6%{transform:translateX(-4788px)}88.9%{transform:translateX(-4921px)}91.7%{transform:translateX(-5054px)}93.6%{transform:translateX(-5187px)}to{transform:translateX(-5453px)}}.a{fill:#282d35}.c,.d,.e{white-space:pre}.c{fill:#a8cc8c;font-weight:700}.d,.e{fill:#b9c0cb}.e{fill:#71bef2;font-weight:700}</style><g font-family="Monaco,Consolas,Menlo,'Bitstream Vera Sans Mono','Powerline Symbols',monospace" font-size="1.67"><defs><symbol id="1"><text y="1.67" class="c">zxprimez@github</text><text x="15.03" y="1.67" class="d">:</text><text x="16.032" y="1.67" class="e">~</text><text x="17.034" y="1.67" class="d">$</text><text x="19.038" y="1.67" class="d">cd</text></symbol><symbol id="2"><text y="1.67" class="c">zxprimez@github</text><text x="15.03" y="1.67" class="d">:</text><text x="16.032" y="1.67" class="e">~</text><text x="17.034" y="1.67" class="d">$</text><text x="19.038" y="1.67" class="d">cd</text><text x="22.044" y="1.67" class="d">~/social-media</text></symbol><symbol id="3"><text y="1.67" class="c">zxprimez@github</text><text x="15.03" y="1.67" class="d">:</text><text x="16.032" y="1.67" class="e">~/social-media</text><text x="30.06" y="1.67" class="d">$</text><text x="32.064" y="1.67" class="d">cat</text></symbol><symbol id="4"><text y="1.67" class="c">zxprimez@github</text><text x="15.03" y="1.67" class="d">:</text><text x="16.032" y="1.67" class="e">~/social-media</text><text x="30.06" y="1.67" class="d">$</text><text x="32.064" y="1.67" class="d">cat</text><text x="36.072" y="1.67" class="d">media.js</text></symbol><symbol id="5"><text y="1.67" class="d">module.exports</text><text x="15.03" y="1.67" class="d">=</text><text x="17.034" y="1.67" class="d">{</text></symbol><symbol id="6"><text x="4.008" y="1.67" class="d">discord:</text><text x="13.026" y="1.67" class="d">&apos;𝖟𝖝𝖕𝖗𝖎𝖒𝖊𝖟♛#0808&apos;,</text></symbol><symbol id="7"><text x="4.008" y="1.67" class="d">instagram:</text><text x="15.03" y="1.67" class="d">&apos;zxprimez&apos;,</text></symbol><symbol id="8"><text x="4.008" y="1.67" class="d">github:</text><text x="12.024" y="1.67" class="d">&apos;zxprimez&apos;,</text></symbol><symbol id="9"><text x="4.008" y="1.67" class="d">website:</text><text x="13.026" y="1.67" class="d">&apos;zxprimez.xyz&apos;,</text></symbol><symbol id="10"><text y="1.67" class="d">}</text><text x="1.002" y="1.67" class="c">zxprimez@github</text><text x="16.032" y="1.67" class="d">:</text><text x="17.034" y="1.67" class="e">~/social-media</text><text x="31.062" y="1.67" class="d">$</text><text x="33.066" y="1.67" class="d">exit</text></symbol><symbol id="a"><path fill="transparent" d="M0 0h133v31H0z"/></symbol><symbol id="b"><path fill="#6f7683" d="M0 0h1.102v2.171H0z"/></symbol></defs><path class="a" d="M0 0h133v67.301H0z"/><g style="animation-duration:10.172347s;animation-iteration-count:infinite;animation-name:h;animation-timing-function:steps(1,end)"><svg width="5586"><svg><use xlink:href="#a"/><use xlink:href="#b" x="-.004"/></svg><svg x="133"><use xlink:href="#a"/><use xlink:href="#b" x="18.996"/><text y="1.67" class="c">zxprimez@github</text><text x="15.03" y="1.67" class="d">:</text><text x="16.032" y="1.67" class="e">~</text><text x="17.034" y="1.67" class="d">$</text></svg><svg x="266"><use xlink:href="#a"/><use xlink:href="#b" x="19.996"/><text y="1.67" class="c">zxprimez@github</text><text x="15.03" y="1.67" class="d">:</text><text x="16.032" y="1.67" class="e">~</text><text x="17.034" y="1.67" class="d">$</text><text x="19.038" y="1.67" class="d">c</text></svg><svg x="399"><use xlink:href="#a"/><use xlink:href="#b" x="20.996"/><use xlink:href="#1"/></svg><svg x="532"><use xlink:href="#a"/><use xlink:href="#b" x="21.996"/><use xlink:href="#1"/></svg><svg x="665"><use xlink:href="#a"/><use xlink:href="#b" x="22.996"/><text y="1.67" class="c">zxprimez@github</text><text x="15.03" y="1.67" class="d">:</text><text x="16.032" y="1.67" class="e">~</text><text x="17.034" y="1.67" class="d">$</text><text x="19.038" y="1.67" class="d">cd</text><text x="22.044" y="1.67" class="d">~</text></svg><svg x="798"><use xlink:href="#a"/><use xlink:href="#b" x="23.996"/><text y="1.67" class="c">zxprimez@github</text><text x="15.03" y="1.67" class="d">:</text><text x="16.032" y="1.67" class="e">~</text><text x="17.034" y="1.67" class="d">$</text><text x="19.038" y="1.67" class="d">cd</text><text x="22.044" y="1.67" class="d">~/</text></svg><svg x="931"><use xlink:href="#a"/><use xlink:href="#b" x="24.996"/><text y="1.67" class="c">zxprimez@github</text><text x="15.03" y="1.67" class="d">:</text><text x="16.032" y="1.67" class="e">~</text><text x="17.034" y="1.67" class="d">$</text><text x="19.038" y="1.67" class="d">cd</text><text x="22.044" y="1.67" class="d">~/s</text></svg><svg x="1064"><use xlink:href="#a"/><use xlink:href="#b" x="25.996"/><text y="1.67" class="c">zxprimez@github</text><text x="15.03" y="1.67" class="d">:</text><text x="16.032" y="1.67" class="e">~</text><text x="17.034" y="1.67" class="d">$</text><text x="19.038" y="1.67" class="d">cd</text><text x="22.044" y="1.67" class="d">~/so</text></svg><svg x="1197"><use xlink:href="#a"/><use xlink:href="#b" x="26.996"/><text y="1.67" class="c">zxprimez@github</text><text x="15.03" y="1.67" class="d">:</text><text x="16.032" y="1.67" class="e">~</text><text x="17.034" y="1.67" class="d">$</text><text x="19.038" y="1.67" class="d">cd</text><text x="22.044" y="1.67" class="d">~/soc</text></svg><svg x="1330"><use xlink:href="#a"/><use xlink:href="#b" x="27.996"/><text y="1.67" class="c">zxprimez@github</text><text x="15.03" y="1.67" class="d">:</text><text x="16.032" y="1.67" class="e">~</text><text x="17.034" y="1.67" class="d">$</text><text x="19.038" y="1.67" class="d">cd</text><text x="22.044" y="1.67" class="d">~/soci</text></svg><svg x="1463"><use xlink:href="#a"/><use xlink:href="#b" x="28.996"/><text y="1.67" class="c">zxprimez@github</text><text x="15.03" y="1.67" class="d">:</text><text x="16.032" y="1.67" class="e">~</text><text x="17.034" y="1.67" class="d">$</text><text x="19.038" y="1.67" class="d">cd</text><text x="22.044" y="1.67" class="d">~/socia</text></svg><svg x="1596"><use xlink:href="#a"/><use xlink:href="#b" x="29.996"/><text y="1.67" class="c">zxprimez@github</text><text x="15.03" y="1.67" class="d">:</text><text x="16.032" y="1.67" class="e">~</text><text x="17.034" y="1.67" class="d">$</text><text x="19.038" y="1.67" class="d">cd</text><text x="22.044" y="1.67" class="d">~/social</text></svg><svg x="1729"><use xlink:href="#a"/><use xlink:href="#b" x="30.996"/><text y="1.67" class="c">zxprimez@github</text><text x="15.03" y="1.67" class="d">:</text><text x="16.032" y="1.67" class="e">~</text><text x="17.034" y="1.67" class="d">$</text><text x="19.038" y="1.67" class="d">cd</text><text x="22.044" y="1.67" class="d">~/social-</text></svg><svg x="1862"><use xlink:href="#a"/><use xlink:href="#b" x="31.996"/><text y="1.67" class="c">zxprimez@github</text><text x="15.03" y="1.67" class="d">:</text><text x="16.032" y="1.67" class="e">~</text><text x="17.034" y="1.67" class="d">$</text><text x="19.038" y="1.67" class="d">cd</text><text x="22.044" y="1.67" class="d">~/social-m</text></svg><svg x="1995"><use xlink:href="#a"/><use xlink:href="#b" x="32.996"/><text y="1.67" class="c">zxprimez@github</text><text x="15.03" y="1.67" class="d">:</text><text x="16.032" y="1.67" class="e">~</text><text x="17.034" y="1.67" class="d">$</text><text x="19.038" y="1.67" class="d">cd</text><text x="22.044" y="1.67" class="d">~/social-me</text></svg><svg x="2128"><use xlink:href="#a"/><use xlink:href="#b" x="33.996"/><text y="1.67" class="c">zxprimez@github</text><text x="15.03" y="1.67" class="d">:</text><text x="16.032" y="1.67" class="e">~</text><text x="17.034" y="1.67" class="d">$</text><text x="19.038" y="1.67" class="d">cd</text><text x="22.044" y="1.67" class="d">~/social-med</text></svg><svg x="2261"><use xlink:href="#a"/><use xlink:href="#b" x="34.996"/><text y="1.67" class="c">zxprimez@github</text><text x="15.03" y="1.67" class="d">:</text><text x="16.032" y="1.67" class="e">~</text><text x="17.034" y="1.67" class="d">$</text><text x="19.038" y="1.67" class="d">cd</text><text x="22.044" y="1.67" class="d">~/social-medi</text></svg><svg x="2394"><use xlink:href="#a"/><use xlink:href="#b" x="35.996"/><use xlink:href="#2"/></svg><svg x="2527"><use xlink:href="#a"/><use xlink:href="#b" x="-.004" y="2.146"/><use xlink:href="#2"/></svg><svg x="2660"><use xlink:href="#a"/><use xlink:href="#b" x="31.996" y="2.146"/><use xlink:href="#2"/><text y="3.841" class="c">zxprimez@github</text><text x="15.03" y="3.841" class="d">:</text><text x="16.032" y="3.841" class="e">~/social-media</text><text x="30.06" y="3.841" class="d">$</text></svg><svg x="2793"><use xlink:href="#a"/><use xlink:href="#b" x="32.996" y="2.146"/><use xlink:href="#2"/><text y="3.841" class="c">zxprimez@github</text><text x="15.03" y="3.841" class="d">:</text><text x="16.032" y="3.841" class="e">~/social-media</text><text x="30.06" y="3.841" class="d">$</text><text x="32.064" y="3.841" class="d">c</text></svg><svg x="2926"><use xlink:href="#a"/><use xlink:href="#b" x="33.996" y="2.146"/><use xlink:href="#2"/><text y="3.841" class="c">zxprimez@github</text><text x="15.03" y="3.841" class="d">:</text><text x="16.032" y="3.841" class="e">~/social-media</text><text x="30.06" y="3.841" class="d">$</text><text x="32.064" y="3.841" class="d">ca</text></svg><svg x="3059"><use xlink:href="#a"/><use xlink:href="#b" x="34.996" y="2.146"/><use xlink:href="#2"/><use xlink:href="#3" y="2.171"/></svg><svg x="3192"><use xlink:href="#a"/><use xlink:href="#b" x="35.996" y="2.146"/><use xlink:href="#2"/><use xlink:href="#3" y="2.171"/></svg><svg x="3325"><use xlink:href="#a"/><use xlink:href="#b" x="36.996" y="2.146"/><use xlink:href="#2"/><text y="3.841" class="c">zxprimez@github</text><text x="15.03" y="3.841" class="d">:</text><text x="16.032" y="3.841" class="e">~/social-media</text><text x="30.06" y="3.841" class="d">$</text><text x="32.064" y="3.841" class="d">cat</text><text x="36.072" y="3.841" class="d">m</text></svg><svg x="3458"><use xlink:href="#a"/><use xlink:href="#b" x="37.996" y="2.146"/><use xlink:href="#2"/><text y="3.841" class="c">zxprimez@github</text><text x="15.03" y="3.841" class="d">:</text><text x="16.032" y="3.841" class="e">~/social-media</text><text x="30.06" y="3.841" class="d">$</text><text x="32.064" y="3.841" class="d">cat</text><text x="36.072" y="3.841" class="d">me</text></svg><svg x="3591"><use xlink:href="#a"/><use xlink:href="#b" x="38.996" y="2.146"/><use xlink:href="#2"/><text y="3.841" class="c">zxprimez@github</text><text x="15.03" y="3.841" class="d">:</text><text x="16.032" y="3.841" class="e">~/social-media</text><text x="30.06" y="3.841" class="d">$</text><text x="32.064" y="3.841" class="d">cat</text><text x="36.072" y="3.841" class="d">med</text></svg><svg x="3724"><use xlink:href="#a"/><use xlink:href="#b" x="39.996" y="2.146"/><use xlink:href="#2"/><text y="3.841" class="c">zxprimez@github</text><text x="15.03" y="3.841" class="d">:</text><text x="16.032" y="3.841" class="e">~/social-media</text><text x="30.06" y="3.841" class="d">$</text><text x="32.064" y="3.841" class="d">cat</text><text x="36.072" y="3.841" class="d">medi</text></svg><svg x="3857"><use xlink:href="#a"/><use xlink:href="#b" x="40.996" y="2.146"/><use xlink:href="#2"/><text y="3.841" class="c">zxprimez@github</text><text x="15.03" y="3.841" class="d">:</text><text x="16.032" y="3.841" class="e">~/social-media</text><text x="30.06" y="3.841" class="d">$</text><text x="32.064" y="3.841" class="d">cat</text><text x="36.072" y="3.841" class="d">media</text></svg><svg x="3990"><use xlink:href="#a"/><use xlink:href="#b" x="41.996" y="2.146"/><use xlink:href="#2"/><text y="3.841" class="c">zxprimez@github</text><text x="15.03" y="3.841" class="d">:</text><text x="16.032" y="3.841" class="e">~/social-media</text><text x="30.06" y="3.841" class="d">$</text><text x="32.064" y="3.841" class="d">cat</text><text x="36.072" y="3.841" class="d">media.</text></svg><svg x="4123"><use xlink:href="#a"/><use xlink:href="#b" x="42.996" y="2.146"/><use xlink:href="#2"/><text y="3.841" class="c">zxprimez@github</text><text x="15.03" y="3.841" class="d">:</text><text x="16.032" y="3.841" class="e">~/social-media</text><text x="30.06" y="3.841" class="d">$</text><text x="32.064" y="3.841" class="d">cat</text><text x="36.072" y="3.841" class="d">media.j</text></svg><svg x="4256"><use xlink:href="#a"/><use xlink:href="#b" x="43.996" y="2.146"/><use xlink:href="#2"/><use xlink:href="#4" y="2.171"/></svg><svg x="4389"><use xlink:href="#a"/><use xlink:href="#b" x="-.004" y="4.317"/><use xlink:href="#2"/><use xlink:href="#4" y="2.171"/></svg><svg x="4522"><use xlink:href="#a"/><use xlink:href="#b" x=".996" y="15.172"/><use xlink:href="#2"/><use xlink:href="#4" y="2.171"/><use xlink:href="#5" y="4.342"/><use xlink:href="#6" y="6.513"/><use xlink:href="#7" y="8.684"/><use xlink:href="#8" y="10.855"/><use xlink:href="#9" y="13.026"/><text y="16.867" class="d">}</text></svg><svg x="4655"><use xlink:href="#a"/><use xlink:href="#b" x="32.996" y="15.172"/><use xlink:href="#2"/><use xlink:href="#4" y="2.171"/><use xlink:href="#5" y="4.342"/><use xlink:href="#6" y="6.513"/><use xlink:href="#7" y="8.684"/><use xlink:href="#8" y="10.855"/><use xlink:href="#9" y="13.026"/><text y="16.867" class="d">}</text><text x="1.002" y="16.867" class="c">zxprimez@github</text><text x="16.032" y="16.867" class="d">:</text><text x="17.034" y="16.867" class="e">~/social-media</text><text x="31.062" y="16.867" class="d">$</text></svg><svg x="4788"><use xlink:href="#a"/><use xlink:href="#b" x="33.996" y="15.172"/><use xlink:href="#2"/><use xlink:href="#4" y="2.171"/><use xlink:href="#5" y="4.342"/><use xlink:href="#6" y="6.513"/><use xlink:href="#7" y="8.684"/><use xlink:href="#8" y="10.855"/><use xlink:href="#9" y="13.026"/><text y="16.867" class="d">}</text><text x="1.002" y="16.867" class="c">zxprimez@github</text><text x="16.032" y="16.867" class="d">:</text><text x="17.034" y="16.867" class="e">~/social-media</text><text x="31.062" y="16.867" class="d">$</text><text x="33.066" y="16.867" class="d">e</text></svg><svg x="4921"><use xlink:href="#a"/><use xlink:href="#b" x="34.996" y="15.172"/><use xlink:href="#2"/><use xlink:href="#4" y="2.171"/><use xlink:href="#5" y="4.342"/><use xlink:href="#6" y="6.513"/><use xlink:href="#7" y="8.684"/><use xlink:href="#8" y="10.855"/><use xlink:href="#9" y="13.026"/><text y="16.867" class="d">}</text><text x="1.002" y="16.867" class="c">zxprimez@github</text><text x="16.032" y="16.867" class="d">:</text><text x="17.034" y="16.867" class="e">~/social-media</text><text x="31.062" y="16.867" class="d">$</text><text x="33.066" y="16.867" class="d">ex</text></svg><svg x="5054"><use xlink:href="#a"/><use xlink:href="#b" x="35.996" y="15.172"/><use xlink:href="#2"/><use xlink:href="#4" y="2.171"/><use xlink:href="#5" y="4.342"/><use xlink:href="#6" y="6.513"/><use xlink:href="#7" y="8.684"/><use xlink:href="#8" y="10.855"/><use xlink:href="#9" y="13.026"/><text y="16.867" class="d">}</text><text x="1.002" y="16.867" class="c">zxprimez@github</text><text x="16.032" y="16.867" class="d">:</text><text x="17.034" y="16.867" class="e">~/social-media</text><text x="31.062" y="16.867" class="d">$</text><text x="33.066" y="16.867" class="d">exi</text></svg><svg x="5187"><use xlink:href="#a"/><use xlink:href="#b" x="36.996" y="15.172"/><use xlink:href="#2"/><use xlink:href="#4" y="2.171"/><use xlink:href="#5" y="4.342"/><use xlink:href="#6" y="6.513"/><use xlink:href="#7" y="8.684"/><use xlink:href="#8" y="10.855"/><use xlink:href="#9" y="13.026"/><use xlink:href="#10" y="15.197"/></svg><svg x="5320"><use xlink:href="#a"/><use xlink:href="#b" x="-.004" y="17.343"/><use xlink:href="#2"/><use xlink:href="#4" y="2.171"/><use xlink:href="#5" y="4.342"/><use xlink:href="#6" y="6.513"/><use xlink:href="#7" y="8.684"/><use xlink:href="#8" y="10.855"/><use xlink:href="#9" y="13.026"/><use xlink:href="#10" y="15.197"/></svg><svg x="5453"><use xlink:href="#a"/><use xlink:href="#b" x="-.004" y="19.514"/><use xlink:href="#2"/><use xlink:href="#4" y="2.171"/><use xlink:href="#5" y="4.342"/><use xlink:href="#6" y="6.513"/><use xlink:href="#7" y="8.684"/><use xlink:href="#8" y="10.855"/><use xlink:href="#9" y="13.026"/><use xlink:href="#10" y="15.197"/><text y="19.038" class="d">exit</text></svg></svg></g></g></svg></svg>
